<?xml version="1.0" encoding="UTF-8" standalone="no"?>
<!DOCTYPE svg PUBLIC "-//W3C//DTD SVG 1.1//EN"
 "http://www.w3.org/Graphics/SVG/1.1/DTD/svg11.dtd">
<!-- Generated by graphviz version 2.47.0 (20210316.0004)
 -->
<!-- Title: dbml Pages: 1 -->
<svg width="2129pt" height="3657pt"
 viewBox="0.00 0.00 2129.20 3657.49" xmlns="http://www.w3.org/2000/svg" xmlns:xlink="http://www.w3.org/1999/xlink">
<g id="graph0" class="graph" transform="scale(1 1) rotate(0) translate(4 3653.49)">
<title>dbml</title>
<!-- Accommodation -->
<g id="Accommodation" class="node">
<title>Accommodation</title>
<ellipse fill="none" stroke="black" stroke-width="0" cx="357.09" cy="-1067.53" rx="292.07" ry="257.27"/>
<polygon fill="#1d71b8" stroke="transparent" points="153.09,-1187.53 153.09,-1247.53 562.09,-1247.53 562.09,-1187.53 153.09,-1187.53"/>
<polygon fill="none" stroke="#29235c" points="153.09,-1187.53 153.09,-1247.53 562.09,-1247.53 562.09,-1187.53 153.09,-1187.53"/>
<text text-anchor="start" x="180.65" y="-1208.73" font-family="Helvetica,sans-Serif" font-weight="bold" font-size="32.00" fill="#ffffff"> &#160;&#160;&#160;&#160;&#160;&#160;Accommodation &#160;&#160;&#160;&#160;&#160;&#160;</text>
<polygon fill="#e7e2dd" stroke="transparent" points="153.09,-1127.53 153.09,-1187.53 562.09,-1187.53 562.09,-1127.53 153.09,-1127.53"/>
<polygon fill="none" stroke="#29235c" points="153.09,-1127.53 153.09,-1187.53 562.09,-1187.53 562.09,-1127.53 153.09,-1127.53"/>
<text text-anchor="start" x="164.09" y="-1148.73" font-family="Helvetica,sans-Serif" font-weight="bold" font-size="32.00" fill="#29235c">id</text>
<text text-anchor="start" x="188.98" y="-1148.73" font-family="Helvetica,sans-Serif" font-size="32.00" fill="#29235c"> &#160;&#160;&#160;</text>
<text text-anchor="start" x="408.87" y="-1148.73" font-family="Helvetica,sans-Serif" font-style="italic" font-size="32.00" fill="#29235c">INTEGER</text>
<polygon fill="#e7e2dd" stroke="transparent" points="153.09,-1067.53 153.09,-1127.53 562.09,-1127.53 562.09,-1067.53 153.09,-1067.53"/>
<polygon fill="none" stroke="#29235c" points="153.09,-1067.53 153.09,-1127.53 562.09,-1127.53 562.09,-1067.53 153.09,-1067.53"/>
<text text-anchor="start" x="164.09" y="-1087.73" font-family="Helvetica,sans-Serif" font-size="32.00" fill="#29235c">holiday_id &#160;&#160;&#160;</text>
<text text-anchor="start" x="408.87" y="-1088.73" font-family="Helvetica,sans-Serif" font-style="italic" font-size="32.00" fill="#29235c">INTEGER</text>
<polygon fill="#e7e2dd" stroke="transparent" points="153.09,-1007.53 153.09,-1067.53 562.09,-1067.53 562.09,-1007.53 153.09,-1007.53"/>
<polygon fill="none" stroke="#29235c" points="153.09,-1007.53 153.09,-1067.53 562.09,-1067.53 562.09,-1007.53 153.09,-1007.53"/>
<text text-anchor="start" x="164.09" y="-1027.73" font-family="Helvetica,sans-Serif" font-size="32.00" fill="#29235c">name &#160;&#160;&#160;</text>
<text text-anchor="start" x="319.99" y="-1028.73" font-family="Helvetica,sans-Serif" font-style="italic" font-size="32.00" fill="#29235c">VARCHAR(100)</text>
<polygon fill="#e7e2dd" stroke="transparent" points="153.09,-947.53 153.09,-1007.53 562.09,-1007.53 562.09,-947.53 153.09,-947.53"/>
<polygon fill="none" stroke="#29235c" points="153.09,-947.53 153.09,-1007.53 562.09,-1007.53 562.09,-947.53 153.09,-947.53"/>
<text text-anchor="start" x="164.09" y="-967.73" font-family="Helvetica,sans-Serif" font-size="32.00" fill="#29235c">address &#160;&#160;&#160;</text>
<text text-anchor="start" x="319.99" y="-968.73" font-family="Helvetica,sans-Serif" font-style="italic" font-size="32.00" fill="#29235c">VARCHAR(200)</text>
<polygon fill="#e7e2dd" stroke="transparent" points="153.09,-887.53 153.09,-947.53 562.09,-947.53 562.09,-887.53 153.09,-887.53"/>
<polygon fill="none" stroke="#29235c" points="153.09,-887.53 153.09,-947.53 562.09,-947.53 562.09,-887.53 153.09,-887.53"/>
<text text-anchor="start" x="163.88" y="-907.73" font-family="Helvetica,sans-Serif" font-size="32.00" fill="#29235c">cost_per_night &#160;&#160;&#160;</text>
<text text-anchor="start" x="408.98" y="-908.73" font-family="Helvetica,sans-Serif" font-style="italic" font-size="32.00" fill="#29235c">INTEGER</text>
<polygon fill="none" stroke="#29235c" stroke-width="2" points="151.59,-886.53 151.59,-1248.53 562.59,-1248.53 562.59,-886.53 151.59,-886.53"/>
</g>
<!-- Holiday -->
<g id="Holiday" class="node">
<title>Holiday</title>
<ellipse fill="none" stroke="black" stroke-width="0" cx="1123.53" cy="-1600.53" rx="282.69" ry="257.27"/>
<polygon fill="#1d71b8" stroke="transparent" points="925.53,-1720.53 925.53,-1780.53 1321.53,-1780.53 1321.53,-1720.53 925.53,-1720.53"/>
<polygon fill="none" stroke="#29235c" points="925.53,-1720.53 925.53,-1780.53 1321.53,-1780.53 1321.53,-1720.53 925.53,-1720.53"/>
<text text-anchor="start" x="1007.95" y="-1741.73" font-family="Helvetica,sans-Serif" font-weight="bold" font-size="32.00" fill="#ffffff"> &#160;&#160;&#160;&#160;&#160;&#160;Holiday &#160;&#160;&#160;&#160;&#160;&#160;</text>
<polygon fill="#e7e2dd" stroke="transparent" points="925.53,-1660.53 925.53,-1720.53 1321.53,-1720.53 1321.53,-1660.53 925.53,-1660.53"/>
<polygon fill="none" stroke="#29235c" points="925.53,-1660.53 925.53,-1720.53 1321.53,-1720.53 1321.53,-1660.53 925.53,-1660.53"/>
<text text-anchor="start" x="936.53" y="-1681.73" font-family="Helvetica,sans-Serif" font-weight="bold" font-size="32.00" fill="#29235c">id</text>
<text text-anchor="start" x="961.42" y="-1681.73" font-family="Helvetica,sans-Serif" font-size="32.00" fill="#29235c"> &#160;&#160;&#160;</text>
<text text-anchor="start" x="1168.31" y="-1681.73" font-family="Helvetica,sans-Serif" font-style="italic" font-size="32.00" fill="#29235c">INTEGER</text>
<polygon fill="#e7e2dd" stroke="transparent" points="925.53,-1600.53 925.53,-1660.53 1321.53,-1660.53 1321.53,-1600.53 925.53,-1600.53"/>
<polygon fill="none" stroke="#29235c" points="925.53,-1600.53 925.53,-1660.53 1321.53,-1660.53 1321.53,-1600.53 925.53,-1600.53"/>
<text text-anchor="start" x="936.53" y="-1620.73" font-family="Helvetica,sans-Serif" font-size="32.00" fill="#29235c">user_id &#160;&#160;&#160;</text>
<text text-anchor="start" x="1168.31" y="-1621.73" font-family="Helvetica,sans-Serif" font-style="italic" font-size="32.00" fill="#29235c">INTEGER</text>
<polygon fill="#e7e2dd" stroke="transparent" points="925.53,-1540.53 925.53,-1600.53 1321.53,-1600.53 1321.53,-1540.53 925.53,-1540.53"/>
<polygon fill="none" stroke="#29235c" points="925.53,-1540.53 925.53,-1600.53 1321.53,-1600.53 1321.53,-1540.53 925.53,-1540.53"/>
<text text-anchor="start" x="936.05" y="-1560.73" font-family="Helvetica,sans-Serif" font-size="32.00" fill="#29235c">destination_id &#160;&#160;&#160;</text>
<text text-anchor="start" x="1168.42" y="-1561.73" font-family="Helvetica,sans-Serif" font-style="italic" font-size="32.00" fill="#29235c">INTEGER</text>
<polygon fill="#e7e2dd" stroke="transparent" points="925.53,-1480.53 925.53,-1540.53 1321.53,-1540.53 1321.53,-1480.53 925.53,-1480.53"/>
<polygon fill="none" stroke="#29235c" points="925.53,-1480.53 925.53,-1540.53 1321.53,-1540.53 1321.53,-1480.53 925.53,-1480.53"/>
<text text-anchor="start" x="936.53" y="-1500.73" font-family="Helvetica,sans-Serif" font-size="32.00" fill="#29235c">start_date &#160;&#160;&#160;</text>
<text text-anchor="start" x="1148.76" y="-1501.73" font-family="Helvetica,sans-Serif" font-style="italic" font-size="32.00" fill="#29235c">DATETIME</text>
<polygon fill="#e7e2dd" stroke="transparent" points="925.53,-1420.53 925.53,-1480.53 1321.53,-1480.53 1321.53,-1420.53 925.53,-1420.53"/>
<polygon fill="none" stroke="#29235c" points="925.53,-1420.53 925.53,-1480.53 1321.53,-1480.53 1321.53,-1420.53 925.53,-1420.53"/>
<text text-anchor="start" x="936.53" y="-1440.73" font-family="Helvetica,sans-Serif" font-size="32.00" fill="#29235c">end_date &#160;&#160;&#160;</text>
<text text-anchor="start" x="1148.76" y="-1441.73" font-family="Helvetica,sans-Serif" font-style="italic" font-size="32.00" fill="#29235c">DATETIME</text>
<polygon fill="none" stroke="#29235c" stroke-width="2" points="924.53,-1419.53 924.53,-1781.53 1322.53,-1781.53 1322.53,-1419.53 924.53,-1419.53"/>
</g>
<!-- Accommodation&#45;&gt;Holiday -->
<!-- Accommodation&#45;&gt;Holiday -->
<g id="edge2" class="edge">
<title>Accommodation:e&#45;&gt;Holiday:w</title>
<path fill="none" stroke="#29235c" stroke-width="3" d="M563.09,-1097.53C868.28,-1097.53 621.55,-1677.29 914.34,-1690.31"/>
<polygon fill="#29235c" stroke="#29235c" stroke-width="3" points="914.46,-1693.81 924.53,-1690.53 914.61,-1686.82 914.46,-1693.81"/>
<text text-anchor="middle" x="930.75" y="-1700.13" font-family="Helvetica,sans-Serif" font-size="32.00" fill="#29235c">*</text>
<text text-anchor="middle" x="554.19" y="-1068.73" font-family="Helvetica,sans-Serif" font-size="32.00" fill="#29235c">1</text>
</g>
<!-- Destination -->
<g id="Destination" class="node">
<title>Destination</title>
<ellipse fill="none" stroke="black" stroke-width="0" cx="1827.04" cy="-2035.53" rx="267.99" ry="172.57"/>
<polygon fill="#1d71b8" stroke="transparent" points="1640.04,-2095.53 1640.04,-2155.53 2015.04,-2155.53 2015.04,-2095.53 1640.04,-2095.53"/>
<polygon fill="none" stroke="#29235c" points="1640.04,-2095.53 1640.04,-2155.53 2015.04,-2155.53 2015.04,-2095.53 1640.04,-2095.53"/>
<text text-anchor="start" x="1685.27" y="-2116.73" font-family="Helvetica,sans-Serif" font-weight="bold" font-size="32.00" fill="#ffffff"> &#160;&#160;&#160;&#160;&#160;&#160;Destination &#160;&#160;&#160;&#160;&#160;&#160;</text>
<polygon fill="#e7e2dd" stroke="transparent" points="1640.04,-2035.53 1640.04,-2095.53 2015.04,-2095.53 2015.04,-2035.53 1640.04,-2035.53"/>
<polygon fill="none" stroke="#29235c" points="1640.04,-2035.53 1640.04,-2095.53 2015.04,-2095.53 2015.04,-2035.53 1640.04,-2035.53"/>
<text text-anchor="start" x="1651.04" y="-2056.73" font-family="Helvetica,sans-Serif" font-weight="bold" font-size="32.00" fill="#29235c">id</text>
<text text-anchor="start" x="1675.93" y="-2056.73" font-family="Helvetica,sans-Serif" font-size="32.00" fill="#29235c"> &#160;&#160;&#160;</text>
<text text-anchor="start" x="1861.82" y="-2056.73" font-family="Helvetica,sans-Serif" font-style="italic" font-size="32.00" fill="#29235c">INTEGER</text>
<polygon fill="#e7e2dd" stroke="transparent" points="1640.04,-1975.53 1640.04,-2035.53 2015.04,-2035.53 2015.04,-1975.53 1640.04,-1975.53"/>
<polygon fill="none" stroke="#29235c" points="1640.04,-1975.53 1640.04,-2035.53 2015.04,-2035.53 2015.04,-1975.53 1640.04,-1975.53"/>
<text text-anchor="start" x="1651.04" y="-1995.73" font-family="Helvetica,sans-Serif" font-size="32.00" fill="#29235c">name &#160;&#160;&#160;</text>
<text text-anchor="start" x="1772.94" y="-1996.73" font-family="Helvetica,sans-Serif" font-style="italic" font-size="32.00" fill="#29235c">VARCHAR(100)</text>
<polygon fill="#e7e2dd" stroke="transparent" points="1640.04,-1915.53 1640.04,-1975.53 2015.04,-1975.53 2015.04,-1915.53 1640.04,-1915.53"/>
<polygon fill="none" stroke="#29235c" points="1640.04,-1915.53 1640.04,-1975.53 2015.04,-1975.53 2015.04,-1915.53 1640.04,-1915.53"/>
<text text-anchor="start" x="1650.8" y="-1935.73" font-family="Helvetica,sans-Serif" font-size="32.00" fill="#29235c">country &#160;&#160;&#160;</text>
<text text-anchor="start" x="1790.88" y="-1936.73" font-family="Helvetica,sans-Serif" font-style="italic" font-size="32.00" fill="#29235c">VARCHAR(50)</text>
<polygon fill="none" stroke="#29235c" stroke-width="2" points="1638.54,-1914.53 1638.54,-2156.53 2015.54,-2156.53 2015.54,-1914.53 1638.54,-1914.53"/>
</g>
<!-- Holiday&#45;&gt;Destination -->
<!-- Holiday&#45;&gt;Destination -->
<g id="edge4" class="edge">
<title>Holiday:e&#45;&gt;Destination:w</title>
<path fill="none" stroke="#29235c" stroke-width="3" d="M1322.53,-1570.53C1449.65,-1570.53 1505.5,-2039.77 1628.87,-2064.52"/>
<polygon fill="#29235c" stroke="#29235c" stroke-width="3" points="1628.74,-2068.02 1639.04,-2065.53 1629.44,-2061.06 1628.74,-2068.02"/>
<text text-anchor="middle" x="1632.82" y="-2075.13" font-family="Helvetica,sans-Serif" font-size="32.00" fill="#29235c">*</text>
<text text-anchor="middle" x="1313.64" y="-1541.73" font-family="Helvetica,sans-Serif" font-size="32.00" fill="#29235c">1</text>
</g>
<!-- User -->
<g id="User" class="node">
<title>User</title>
<ellipse fill="none" stroke="black" stroke-width="0" cx="1827.04" cy="-1630.53" rx="294.31" ry="214.92"/>
<polygon fill="#1d71b8" stroke="transparent" points="1621.04,-1720.53 1621.04,-1780.53 2033.04,-1780.53 2033.04,-1720.53 1621.04,-1720.53"/>
<polygon fill="none" stroke="#29235c" points="1621.04,-1720.53 1621.04,-1780.53 2033.04,-1780.53 2033.04,-1720.53 1621.04,-1720.53"/>
<text text-anchor="start" x="1731.02" y="-1741.73" font-family="Helvetica,sans-Serif" font-weight="bold" font-size="32.00" fill="#ffffff"> &#160;&#160;&#160;&#160;&#160;&#160;User &#160;&#160;&#160;&#160;&#160;&#160;</text>
<polygon fill="#e7e2dd" stroke="transparent" points="1621.04,-1660.53 1621.04,-1720.53 2033.04,-1720.53 2033.04,-1660.53 1621.04,-1660.53"/>
<polygon fill="none" stroke="#29235c" points="1621.04,-1660.53 1621.04,-1720.53 2033.04,-1720.53 2033.04,-1660.53 1621.04,-1660.53"/>
<text text-anchor="start" x="1632.04" y="-1681.73" font-family="Helvetica,sans-Serif" font-weight="bold" font-size="32.00" fill="#29235c">id</text>
<text text-anchor="start" x="1656.93" y="-1681.73" font-family="Helvetica,sans-Serif" font-size="32.00" fill="#29235c"> &#160;&#160;&#160;</text>
<text text-anchor="start" x="1879.82" y="-1681.73" font-family="Helvetica,sans-Serif" font-style="italic" font-size="32.00" fill="#29235c">INTEGER</text>
<polygon fill="#e7e2dd" stroke="transparent" points="1621.04,-1600.53 1621.04,-1660.53 2033.04,-1660.53 2033.04,-1600.53 1621.04,-1600.53"/>
<polygon fill="none" stroke="#29235c" points="1621.04,-1600.53 1621.04,-1660.53 2033.04,-1660.53 2033.04,-1600.53 1621.04,-1600.53"/>
<text text-anchor="start" x="1631.63" y="-1620.73" font-family="Helvetica,sans-Serif" font-size="32.00" fill="#29235c">username &#160;&#160;&#160;</text>
<text text-anchor="start" x="1808.88" y="-1621.73" font-family="Helvetica,sans-Serif" font-style="italic" font-size="32.00" fill="#29235c">VARCHAR(50)</text>
<polygon fill="#e7e2dd" stroke="transparent" points="1621.04,-1540.53 1621.04,-1600.53 2033.04,-1600.53 2033.04,-1540.53 1621.04,-1540.53"/>
<polygon fill="none" stroke="#29235c" points="1621.04,-1540.53 1621.04,-1600.53 2033.04,-1600.53 2033.04,-1540.53 1621.04,-1540.53"/>
<text text-anchor="start" x="1632.04" y="-1560.73" font-family="Helvetica,sans-Serif" font-size="32.00" fill="#29235c">email &#160;&#160;&#160;</text>
<text text-anchor="start" x="1790.94" y="-1561.73" font-family="Helvetica,sans-Serif" font-style="italic" font-size="32.00" fill="#29235c">VARCHAR(100)</text>
<polygon fill="#e7e2dd" stroke="transparent" points="1621.04,-1480.53 1621.04,-1540.53 2033.04,-1540.53 2033.04,-1480.53 1621.04,-1480.53"/>
<polygon fill="none" stroke="#29235c" points="1621.04,-1480.53 1621.04,-1540.53 2033.04,-1540.53 2033.04,-1480.53 1621.04,-1480.53"/>
<text text-anchor="start" x="1632.04" y="-1500.73" font-family="Helvetica,sans-Serif" font-size="32.00" fill="#29235c">date_joined &#160;&#160;&#160;</text>
<text text-anchor="start" x="1860.27" y="-1501.73" font-family="Helvetica,sans-Serif" font-style="italic" font-size="32.00" fill="#29235c">DATETIME</text>
<polygon fill="none" stroke="#29235c" stroke-width="2" points="1620.04,-1479.53 1620.04,-1781.53 2034.04,-1781.53 2034.04,-1479.53 1620.04,-1479.53"/>
</g>
<!-- Holiday&#45;&gt;User -->
<!-- Holiday&#45;&gt;User -->
<g id="edge6" class="edge">
<title>Holiday:e&#45;&gt;User:w</title>
<path fill="none" stroke="#29235c" stroke-width="3" d="M1322.53,-1630.53C1453.99,-1630.53 1483.67,-1687.53 1609.97,-1690.42"/>
<polygon fill="#29235c" stroke="#29235c" stroke-width="3" points="1610,-1693.92 1620.04,-1690.53 1610.08,-1686.92 1610,-1693.92"/>
<text text-anchor="middle" x="1613.82" y="-1700.13" font-family="Helvetica,sans-Serif" font-size="32.00" fill="#29235c">*</text>
<text text-anchor="middle" x="1313.64" y="-1640.13" font-family="Helvetica,sans-Serif" font-size="32.00" fill="#29235c">1</text>
</g>
<!-- Activity -->
<g id="Activity" class="node">
<title>Activity</title>
<ellipse fill="none" stroke="black" stroke-width="0" cx="357.09" cy="-577.53" rx="263.09" ry="214.92"/>
<polygon fill="#1d71b8" stroke="transparent" points="173.09,-667.53 173.09,-727.53 541.09,-727.53 541.09,-667.53 173.09,-667.53"/>
<polygon fill="none" stroke="#29235c" points="173.09,-667.53 173.09,-727.53 541.09,-727.53 541.09,-667.53 173.09,-667.53"/>
<text text-anchor="start" x="244.18" y="-688.73" font-family="Helvetica,sans-Serif" font-weight="bold" font-size="32.00" fill="#ffffff"> &#160;&#160;&#160;&#160;&#160;&#160;Activity &#160;&#160;&#160;&#160;&#160;&#160;</text>
<polygon fill="#e7e2dd" stroke="transparent" points="173.09,-607.53 173.09,-667.53 541.09,-667.53 541.09,-607.53 173.09,-607.53"/>
<polygon fill="none" stroke="#29235c" points="173.09,-607.53 173.09,-667.53 541.09,-667.53 541.09,-607.53 173.09,-607.53"/>
<text text-anchor="start" x="184.09" y="-628.73" font-family="Helvetica,sans-Serif" font-weight="bold" font-size="32.00" fill="#29235c">id</text>
<text text-anchor="start" x="208.98" y="-628.73" font-family="Helvetica,sans-Serif" font-size="32.00" fill="#29235c"> &#160;&#160;&#160;</text>
<text text-anchor="start" x="387.87" y="-628.73" font-family="Helvetica,sans-Serif" font-style="italic" font-size="32.00" fill="#29235c">INTEGER</text>
<polygon fill="#e7e2dd" stroke="transparent" points="173.09,-547.53 173.09,-607.53 541.09,-607.53 541.09,-547.53 173.09,-547.53"/>
<polygon fill="none" stroke="#29235c" points="173.09,-547.53 173.09,-607.53 541.09,-607.53 541.09,-547.53 173.09,-547.53"/>
<text text-anchor="start" x="184.09" y="-567.73" font-family="Helvetica,sans-Serif" font-size="32.00" fill="#29235c">holiday_id &#160;&#160;&#160;</text>
<text text-anchor="start" x="387.87" y="-568.73" font-family="Helvetica,sans-Serif" font-style="italic" font-size="32.00" fill="#29235c">INTEGER</text>
<polygon fill="#e7e2dd" stroke="transparent" points="173.09,-487.53 173.09,-547.53 541.09,-547.53 541.09,-487.53 173.09,-487.53"/>
<polygon fill="none" stroke="#29235c" points="173.09,-487.53 173.09,-547.53 541.09,-547.53 541.09,-487.53 173.09,-487.53"/>
<text text-anchor="start" x="183.79" y="-507.73" font-family="Helvetica,sans-Serif" font-size="32.00" fill="#29235c">name &#160;&#160;&#160;</text>
<text text-anchor="start" x="299.04" y="-508.73" font-family="Helvetica,sans-Serif" font-style="italic" font-size="32.00" fill="#29235c">VARCHAR(100)</text>
<polygon fill="#e7e2dd" stroke="transparent" points="173.09,-427.53 173.09,-487.53 541.09,-487.53 541.09,-427.53 173.09,-427.53"/>
<polygon fill="none" stroke="#29235c" points="173.09,-427.53 173.09,-487.53 541.09,-487.53 541.09,-427.53 173.09,-427.53"/>
<text text-anchor="start" x="184.09" y="-447.73" font-family="Helvetica,sans-Serif" font-size="32.00" fill="#29235c">cost &#160;&#160;&#160;</text>
<text text-anchor="start" x="387.87" y="-448.73" font-family="Helvetica,sans-Serif" font-style="italic" font-size="32.00" fill="#29235c">INTEGER</text>
<polygon fill="none" stroke="#29235c" stroke-width="2" points="172.09,-426.53 172.09,-728.53 542.09,-728.53 542.09,-426.53 172.09,-426.53"/>
</g>
<!-- Activity&#45;&gt;Holiday -->
<!-- Activity&#45;&gt;Holiday -->
<g id="edge8" class="edge">
<title>Activity:e&#45;&gt;Holiday:w</title>
<path fill="none" stroke="#29235c" stroke-width="3" d="M542.09,-577.53C667.63,-577.53 660.28,-688.15 714.18,-801.53 886.99,-1165.1 524.79,-1681.62 914.29,-1690.42"/>
<polygon fill="#29235c" stroke="#29235c" stroke-width="3" points="914.49,-1693.92 924.53,-1690.53 914.57,-1686.92 914.49,-1693.92"/>
<text text-anchor="middle" x="930.75" y="-1661.73" font-family="Helvetica,sans-Serif" font-size="32.00" fill="#29235c">*</text>
<text text-anchor="middle" x="533.19" y="-548.73" font-family="Helvetica,sans-Serif" font-size="32.00" fill="#29235c">1</text>
</g>
<!-- Event -->
<g id="Event" class="node">
<title>Event</title>
<ellipse fill="none" stroke="black" stroke-width="0" cx="357.09" cy="-3434.53" rx="263.09" ry="214.92"/>
<polygon fill="#1d71b8" stroke="transparent" points="173.09,-3524.53 173.09,-3584.53 541.09,-3584.53 541.09,-3524.53 173.09,-3524.53"/>
<polygon fill="none" stroke="#29235c" points="173.09,-3524.53 173.09,-3584.53 541.09,-3584.53 541.09,-3524.53 173.09,-3524.53"/>
<text text-anchor="start" x="253.93" y="-3545.73" font-family="Helvetica,sans-Serif" font-weight="bold" font-size="32.00" fill="#ffffff"> &#160;&#160;&#160;&#160;&#160;&#160;Event &#160;&#160;&#160;&#160;&#160;&#160;</text>
<polygon fill="#e7e2dd" stroke="transparent" points="173.09,-3464.53 173.09,-3524.53 541.09,-3524.53 541.09,-3464.53 173.09,-3464.53"/>
<polygon fill="none" stroke="#29235c" points="173.09,-3464.53 173.09,-3524.53 541.09,-3524.53 541.09,-3464.53 173.09,-3464.53"/>
<text text-anchor="start" x="184.09" y="-3485.73" font-family="Helvetica,sans-Serif" font-weight="bold" font-size="32.00" fill="#29235c">id</text>
<text text-anchor="start" x="208.98" y="-3485.73" font-family="Helvetica,sans-Serif" font-size="32.00" fill="#29235c"> &#160;&#160;&#160;</text>
<text text-anchor="start" x="387.87" y="-3485.73" font-family="Helvetica,sans-Serif" font-style="italic" font-size="32.00" fill="#29235c">INTEGER</text>
<polygon fill="#e7e2dd" stroke="transparent" points="173.09,-3404.53 173.09,-3464.53 541.09,-3464.53 541.09,-3404.53 173.09,-3404.53"/>
<polygon fill="none" stroke="#29235c" points="173.09,-3404.53 173.09,-3464.53 541.09,-3464.53 541.09,-3404.53 173.09,-3404.53"/>
<text text-anchor="start" x="184.09" y="-3424.73" font-family="Helvetica,sans-Serif" font-size="32.00" fill="#29235c">holiday_id &#160;&#160;&#160;</text>
<text text-anchor="start" x="387.87" y="-3425.73" font-family="Helvetica,sans-Serif" font-style="italic" font-size="32.00" fill="#29235c">INTEGER</text>
<polygon fill="#e7e2dd" stroke="transparent" points="173.09,-3344.53 173.09,-3404.53 541.09,-3404.53 541.09,-3344.53 173.09,-3344.53"/>
<polygon fill="none" stroke="#29235c" points="173.09,-3344.53 173.09,-3404.53 541.09,-3404.53 541.09,-3344.53 173.09,-3344.53"/>
<text text-anchor="start" x="183.79" y="-3364.73" font-family="Helvetica,sans-Serif" font-size="32.00" fill="#29235c">name &#160;&#160;&#160;</text>
<text text-anchor="start" x="299.04" y="-3365.73" font-family="Helvetica,sans-Serif" font-style="italic" font-size="32.00" fill="#29235c">VARCHAR(100)</text>
<polygon fill="#e7e2dd" stroke="transparent" points="173.09,-3284.53 173.09,-3344.53 541.09,-3344.53 541.09,-3284.53 173.09,-3284.53"/>
<polygon fill="none" stroke="#29235c" points="173.09,-3284.53 173.09,-3344.53 541.09,-3344.53 541.09,-3284.53 173.09,-3284.53"/>
<text text-anchor="start" x="184.09" y="-3304.73" font-family="Helvetica,sans-Serif" font-size="32.00" fill="#29235c">date &#160;&#160;&#160;</text>
<text text-anchor="start" x="368.32" y="-3305.73" font-family="Helvetica,sans-Serif" font-style="italic" font-size="32.00" fill="#29235c">DATETIME</text>
<polygon fill="none" stroke="#29235c" stroke-width="2" points="172.09,-3283.53 172.09,-3585.53 542.09,-3585.53 542.09,-3283.53 172.09,-3283.53"/>
</g>
<!-- Event&#45;&gt;Holiday -->
<!-- Event&#45;&gt;Holiday -->
<g id="edge10" class="edge">
<title>Event:e&#45;&gt;Holiday:w</title>
<path fill="none" stroke="#29235c" stroke-width="3" d="M542.09,-3434.53C667.63,-3434.53 672.2,-3328.85 714.18,-3210.53 764.13,-3069.75 691.49,-2003.91 750.18,-1866.53 792.08,-1768.44 813.09,-1695.23 914.47,-1690.75"/>
<polygon fill="#29235c" stroke="#29235c" stroke-width="3" points="914.61,-1694.25 924.53,-1690.53 914.46,-1687.25 914.61,-1694.25"/>
<text text-anchor="middle" x="918.31" y="-1700.13" font-family="Helvetica,sans-Serif" font-size="32.00" fill="#29235c">*</text>
<text text-anchor="middle" x="533.19" y="-3444.13" font-family="Helvetica,sans-Serif" font-size="32.00" fill="#29235c">1</text>
</g>
<!-- PackingList -->
<g id="PackingList" class="node">
<title>PackingList</title>
<ellipse fill="none" stroke="black" stroke-width="0" cx="357.09" cy="-2986.53" rx="305.44" ry="214.92"/>
<polygon fill="#1d71b8" stroke="transparent" points="143.09,-3076.53 143.09,-3136.53 571.09,-3136.53 571.09,-3076.53 143.09,-3076.53"/>
<polygon fill="none" stroke="#29235c" points="143.09,-3076.53 143.09,-3136.53 571.09,-3136.53 571.09,-3076.53 143.09,-3076.53"/>
<text text-anchor="start" x="213.04" y="-3097.73" font-family="Helvetica,sans-Serif" font-weight="bold" font-size="32.00" fill="#ffffff"> &#160;&#160;&#160;&#160;&#160;&#160;PackingList &#160;&#160;&#160;&#160;&#160;&#160;</text>
<polygon fill="#e7e2dd" stroke="transparent" points="143.09,-3016.53 143.09,-3076.53 571.09,-3076.53 571.09,-3016.53 143.09,-3016.53"/>
<polygon fill="none" stroke="#29235c" points="143.09,-3016.53 143.09,-3076.53 571.09,-3076.53 571.09,-3016.53 143.09,-3016.53"/>
<text text-anchor="start" x="154.09" y="-3037.73" font-family="Helvetica,sans-Serif" font-weight="bold" font-size="32.00" fill="#29235c">id</text>
<text text-anchor="start" x="178.98" y="-3037.73" font-family="Helvetica,sans-Serif" font-size="32.00" fill="#29235c"> &#160;&#160;&#160;</text>
<text text-anchor="start" x="417.87" y="-3037.73" font-family="Helvetica,sans-Serif" font-style="italic" font-size="32.00" fill="#29235c">INTEGER</text>
<polygon fill="#e7e2dd" stroke="transparent" points="143.09,-2956.53 143.09,-3016.53 571.09,-3016.53 571.09,-2956.53 143.09,-2956.53"/>
<polygon fill="none" stroke="#29235c" points="143.09,-2956.53 143.09,-3016.53 571.09,-3016.53 571.09,-2956.53 143.09,-2956.53"/>
<text text-anchor="start" x="154.09" y="-2976.73" font-family="Helvetica,sans-Serif" font-size="32.00" fill="#29235c">holiday_id &#160;&#160;&#160;</text>
<text text-anchor="start" x="417.87" y="-2977.73" font-family="Helvetica,sans-Serif" font-style="italic" font-size="32.00" fill="#29235c">INTEGER</text>
<polygon fill="#e7e2dd" stroke="transparent" points="143.09,-2896.53 143.09,-2956.53 571.09,-2956.53 571.09,-2896.53 143.09,-2896.53"/>
<polygon fill="none" stroke="#29235c" points="143.09,-2896.53 143.09,-2956.53 571.09,-2956.53 571.09,-2896.53 143.09,-2896.53"/>
<text text-anchor="start" x="153.68" y="-2916.73" font-family="Helvetica,sans-Serif" font-size="32.00" fill="#29235c">item_name &#160;&#160;&#160;</text>
<text text-anchor="start" x="346.93" y="-2917.73" font-family="Helvetica,sans-Serif" font-style="italic" font-size="32.00" fill="#29235c">VARCHAR(50)</text>
<polygon fill="#e7e2dd" stroke="transparent" points="143.09,-2836.53 143.09,-2896.53 571.09,-2896.53 571.09,-2836.53 143.09,-2836.53"/>
<polygon fill="none" stroke="#29235c" points="143.09,-2836.53 143.09,-2896.53 571.09,-2896.53 571.09,-2836.53 143.09,-2836.53"/>
<text text-anchor="start" x="154.09" y="-2856.73" font-family="Helvetica,sans-Serif" font-size="32.00" fill="#29235c">quantity &#160;&#160;&#160;</text>
<text text-anchor="start" x="417.87" y="-2857.73" font-family="Helvetica,sans-Serif" font-style="italic" font-size="32.00" fill="#29235c">INTEGER</text>
<polygon fill="none" stroke="#29235c" stroke-width="2" points="142.09,-2835.53 142.09,-3137.53 572.09,-3137.53 572.09,-2835.53 142.09,-2835.53"/>
</g>
<!-- PackingList&#45;&gt;Holiday -->
<!-- PackingList&#45;&gt;Holiday -->
<g id="edge12" class="edge">
<title>PackingList:e&#45;&gt;Holiday:w</title>
<path fill="none" stroke="#29235c" stroke-width="3" d="M572.09,-2986.53C689.98,-2986.53 679.03,-2875.07 714.18,-2762.53 773.58,-2572.32 670.67,-2049.26 750.18,-1866.53 792.74,-1768.73 813.13,-1695.25 914.47,-1690.75"/>
<polygon fill="#29235c" stroke="#29235c" stroke-width="3" points="914.61,-1694.25 924.53,-1690.53 914.46,-1687.25 914.61,-1694.25"/>
<text text-anchor="middle" x="918.31" y="-1661.73" font-family="Helvetica,sans-Serif" font-size="32.00" fill="#29235c">*</text>
<text text-anchor="middle" x="563.19" y="-2996.13" font-family="Helvetica,sans-Serif" font-size="32.00" fill="#29235c">1</text>
</g>
<!-- Review -->
<g id="Review" class="node">
<title>Review</title>
<ellipse fill="none" stroke="black" stroke-width="0" cx="357.09" cy="-2538.53" rx="299.63" ry="214.92"/>
<polygon fill="#1d71b8" stroke="transparent" points="147.09,-2628.53 147.09,-2688.53 567.09,-2688.53 567.09,-2628.53 147.09,-2628.53"/>
<polygon fill="none" stroke="#29235c" points="147.09,-2628.53 147.09,-2688.53 567.09,-2688.53 567.09,-2628.53 147.09,-2628.53"/>
<text text-anchor="start" x="242.4" y="-2649.73" font-family="Helvetica,sans-Serif" font-weight="bold" font-size="32.00" fill="#ffffff"> &#160;&#160;&#160;&#160;&#160;&#160;Review &#160;&#160;&#160;&#160;&#160;&#160;</text>
<polygon fill="#e7e2dd" stroke="transparent" points="147.09,-2568.53 147.09,-2628.53 567.09,-2628.53 567.09,-2568.53 147.09,-2568.53"/>
<polygon fill="none" stroke="#29235c" points="147.09,-2568.53 147.09,-2628.53 567.09,-2628.53 567.09,-2568.53 147.09,-2568.53"/>
<text text-anchor="start" x="158.09" y="-2589.73" font-family="Helvetica,sans-Serif" font-weight="bold" font-size="32.00" fill="#29235c">id</text>
<text text-anchor="start" x="182.98" y="-2589.73" font-family="Helvetica,sans-Serif" font-size="32.00" fill="#29235c"> &#160;&#160;&#160;</text>
<text text-anchor="start" x="413.87" y="-2589.73" font-family="Helvetica,sans-Serif" font-style="italic" font-size="32.00" fill="#29235c">INTEGER</text>
<polygon fill="#e7e2dd" stroke="transparent" points="147.09,-2508.53 147.09,-2568.53 567.09,-2568.53 567.09,-2508.53 147.09,-2508.53"/>
<polygon fill="none" stroke="#29235c" points="147.09,-2508.53 147.09,-2568.53 567.09,-2568.53 567.09,-2508.53 147.09,-2508.53"/>
<text text-anchor="start" x="158.09" y="-2528.73" font-family="Helvetica,sans-Serif" font-size="32.00" fill="#29235c">holiday_id &#160;&#160;&#160;</text>
<text text-anchor="start" x="413.87" y="-2529.73" font-family="Helvetica,sans-Serif" font-style="italic" font-size="32.00" fill="#29235c">INTEGER</text>
<polygon fill="#e7e2dd" stroke="transparent" points="147.09,-2448.53 147.09,-2508.53 567.09,-2508.53 567.09,-2448.53 147.09,-2448.53"/>
<polygon fill="none" stroke="#29235c" points="147.09,-2448.53 147.09,-2508.53 567.09,-2508.53 567.09,-2448.53 147.09,-2448.53"/>
<text text-anchor="start" x="158.09" y="-2468.73" font-family="Helvetica,sans-Serif" font-size="32.00" fill="#29235c">rating &#160;&#160;&#160;</text>
<text text-anchor="start" x="413.87" y="-2469.73" font-family="Helvetica,sans-Serif" font-style="italic" font-size="32.00" fill="#29235c">INTEGER</text>
<polygon fill="#e7e2dd" stroke="transparent" points="147.09,-2388.53 147.09,-2448.53 567.09,-2448.53 567.09,-2388.53 147.09,-2388.53"/>
<polygon fill="none" stroke="#29235c" points="147.09,-2388.53 147.09,-2448.53 567.09,-2448.53 567.09,-2388.53 147.09,-2388.53"/>
<text text-anchor="start" x="158.02" y="-2408.73" font-family="Helvetica,sans-Serif" font-size="32.00" fill="#29235c">comment &#160;&#160;&#160;</text>
<text text-anchor="start" x="325.04" y="-2409.73" font-family="Helvetica,sans-Serif" font-style="italic" font-size="32.00" fill="#29235c">VARCHAR(500)</text>
<polygon fill="none" stroke="#29235c" stroke-width="2" points="146.09,-2387.53 146.09,-2689.53 568.09,-2689.53 568.09,-2387.53 146.09,-2387.53"/>
</g>
<!-- Review&#45;&gt;Holiday -->
<!-- Review&#45;&gt;Holiday -->
<g id="edge14" class="edge">
<title>Review:e&#45;&gt;Holiday:w</title>
<path fill="none" stroke="#29235c" stroke-width="3" d="M568.09,-2538.53C819.37,-2538.53 719.26,-1933.86 750.18,-1866.53 794.69,-1769.6 813.25,-1695.3 914.47,-1690.75"/>
<polygon fill="#29235c" stroke="#29235c" stroke-width="3" points="914.61,-1694.25 924.53,-1690.53 914.46,-1687.25 914.61,-1694.25"/>
<text text-anchor="middle" x="930.75" y="-1700.13" font-family="Helvetica,sans-Serif" font-size="32.00" fill="#29235c">*</text>
<text text-anchor="middle" x="559.19" y="-2548.13" font-family="Helvetica,sans-Serif" font-size="32.00" fill="#29235c">1</text>
</g>
<!-- Transport -->
<g id="Transport" class="node">
<title>Transport</title>
<ellipse fill="none" stroke="black" stroke-width="0" cx="357.09" cy="-2090.53" rx="245.23" ry="214.92"/>
<polygon fill="#1d71b8" stroke="transparent" points="186.09,-2180.53 186.09,-2240.53 529.09,-2240.53 529.09,-2180.53 186.09,-2180.53"/>
<polygon fill="none" stroke="#29235c" points="186.09,-2180.53 186.09,-2240.53 529.09,-2240.53 529.09,-2180.53 186.09,-2180.53"/>
<text text-anchor="start" x="226.89" y="-2201.73" font-family="Helvetica,sans-Serif" font-weight="bold" font-size="32.00" fill="#ffffff"> &#160;&#160;&#160;&#160;&#160;&#160;Transport &#160;&#160;&#160;&#160;&#160;&#160;</text>
<polygon fill="#e7e2dd" stroke="transparent" points="186.09,-2120.53 186.09,-2180.53 529.09,-2180.53 529.09,-2120.53 186.09,-2120.53"/>
<polygon fill="none" stroke="#29235c" points="186.09,-2120.53 186.09,-2180.53 529.09,-2180.53 529.09,-2120.53 186.09,-2120.53"/>
<text text-anchor="start" x="197.09" y="-2141.73" font-family="Helvetica,sans-Serif" font-weight="bold" font-size="32.00" fill="#29235c">id</text>
<text text-anchor="start" x="221.98" y="-2141.73" font-family="Helvetica,sans-Serif" font-size="32.00" fill="#29235c"> &#160;&#160;&#160;</text>
<text text-anchor="start" x="375.87" y="-2141.73" font-family="Helvetica,sans-Serif" font-style="italic" font-size="32.00" fill="#29235c">INTEGER</text>
<polygon fill="#e7e2dd" stroke="transparent" points="186.09,-2060.53 186.09,-2120.53 529.09,-2120.53 529.09,-2060.53 186.09,-2060.53"/>
<polygon fill="none" stroke="#29235c" points="186.09,-2060.53 186.09,-2120.53 529.09,-2120.53 529.09,-2060.53 186.09,-2060.53"/>
<text text-anchor="start" x="196.79" y="-2080.73" font-family="Helvetica,sans-Serif" font-size="32.00" fill="#29235c">holiday_id &#160;&#160;&#160;</text>
<text text-anchor="start" x="375.98" y="-2081.73" font-family="Helvetica,sans-Serif" font-style="italic" font-size="32.00" fill="#29235c">INTEGER</text>
<polygon fill="#e7e2dd" stroke="transparent" points="186.09,-2000.53 186.09,-2060.53 529.09,-2060.53 529.09,-2000.53 186.09,-2000.53"/>
<polygon fill="none" stroke="#29235c" points="186.09,-2000.53 186.09,-2060.53 529.09,-2060.53 529.09,-2000.53 186.09,-2000.53"/>
<text text-anchor="start" x="197.09" y="-2020.73" font-family="Helvetica,sans-Serif" font-size="32.00" fill="#29235c">Type &#160;&#160;&#160;</text>
<text text-anchor="start" x="304.78" y="-2021.73" font-family="Helvetica,sans-Serif" font-style="italic" font-size="32.00" fill="#29235c">VARCHAR(50)</text>
<polygon fill="#e7e2dd" stroke="transparent" points="186.09,-1940.53 186.09,-2000.53 529.09,-2000.53 529.09,-1940.53 186.09,-1940.53"/>
<polygon fill="none" stroke="#29235c" points="186.09,-1940.53 186.09,-2000.53 529.09,-2000.53 529.09,-1940.53 186.09,-1940.53"/>
<text text-anchor="start" x="197.09" y="-1960.73" font-family="Helvetica,sans-Serif" font-size="32.00" fill="#29235c">cost &#160;&#160;&#160;</text>
<text text-anchor="start" x="375.87" y="-1961.73" font-family="Helvetica,sans-Serif" font-style="italic" font-size="32.00" fill="#29235c">INTEGER</text>
<polygon fill="none" stroke="#29235c" stroke-width="2" points="184.59,-1939.53 184.59,-2241.53 529.59,-2241.53 529.59,-1939.53 184.59,-1939.53"/>
</g>
<!-- Transport&#45;&gt;Holiday -->
<!-- Transport&#45;&gt;Holiday -->
<g id="edge16" class="edge">
<title>Transport:e&#45;&gt;Holiday:w</title>
<path fill="none" stroke="#29235c" stroke-width="3" d="M530.09,-2090.53C776.35,-2090.53 677.66,-1701.4 914.49,-1690.76"/>
<polygon fill="#29235c" stroke="#29235c" stroke-width="3" points="914.61,-1694.25 924.53,-1690.53 914.46,-1687.26 914.61,-1694.25"/>
<text text-anchor="middle" x="930.75" y="-1661.73" font-family="Helvetica,sans-Serif" font-size="32.00" fill="#29235c">*</text>
<text text-anchor="middle" x="521.19" y="-2100.13" font-family="Helvetica,sans-Serif" font-size="32.00" fill="#29235c">1</text>
</g>
<!-- TravelCompanion -->
<g id="TravelCompanion" class="node">
<title>TravelCompanion</title>
<ellipse fill="none" stroke="black" stroke-width="0" cx="357.09" cy="-172.53" rx="284.01" ry="172.57"/>
<polygon fill="#1d71b8" stroke="transparent" points="158.09,-232.53 158.09,-292.53 556.09,-292.53 556.09,-232.53 158.09,-232.53"/>
<polygon fill="none" stroke="#29235c" points="158.09,-232.53 158.09,-292.53 556.09,-292.53 556.09,-232.53 158.09,-232.53"/>
<text text-anchor="start" x="168.61" y="-253.73" font-family="Helvetica,sans-Serif" font-weight="bold" font-size="32.00" fill="#ffffff"> &#160;&#160;&#160;&#160;&#160;&#160;TravelCompanion &#160;&#160;&#160;&#160;&#160;&#160;</text>
<polygon fill="#e7e2dd" stroke="transparent" points="158.09,-172.53 158.09,-232.53 556.09,-232.53 556.09,-172.53 158.09,-172.53"/>
<polygon fill="none" stroke="#29235c" points="158.09,-172.53 158.09,-232.53 556.09,-232.53 556.09,-172.53 158.09,-172.53"/>
<text text-anchor="start" x="169.09" y="-193.73" font-family="Helvetica,sans-Serif" font-weight="bold" font-size="32.00" fill="#29235c">id</text>
<text text-anchor="start" x="193.98" y="-193.73" font-family="Helvetica,sans-Serif" font-size="32.00" fill="#29235c"> &#160;&#160;&#160;</text>
<text text-anchor="start" x="402.87" y="-193.73" font-family="Helvetica,sans-Serif" font-style="italic" font-size="32.00" fill="#29235c">INTEGER</text>
<polygon fill="#e7e2dd" stroke="transparent" points="158.09,-112.53 158.09,-172.53 556.09,-172.53 556.09,-112.53 158.09,-112.53"/>
<polygon fill="none" stroke="#29235c" points="158.09,-112.53 158.09,-172.53 556.09,-172.53 556.09,-112.53 158.09,-112.53"/>
<text text-anchor="start" x="169.09" y="-132.73" font-family="Helvetica,sans-Serif" font-size="32.00" fill="#29235c">holiday_id &#160;&#160;&#160;</text>
<text text-anchor="start" x="402.87" y="-133.73" font-family="Helvetica,sans-Serif" font-style="italic" font-size="32.00" fill="#29235c">INTEGER</text>
<polygon fill="#e7e2dd" stroke="transparent" points="158.09,-52.53 158.09,-112.53 556.09,-112.53 556.09,-52.53 158.09,-52.53"/>
<polygon fill="none" stroke="#29235c" points="158.09,-52.53 158.09,-112.53 556.09,-112.53 556.09,-52.53 158.09,-52.53"/>
<text text-anchor="start" x="169.09" y="-72.73" font-family="Helvetica,sans-Serif" font-size="32.00" fill="#29235c">user_id &#160;&#160;&#160;</text>
<text text-anchor="start" x="402.87" y="-73.73" font-family="Helvetica,sans-Serif" font-style="italic" font-size="32.00" fill="#29235c">INTEGER</text>
<polygon fill="none" stroke="#29235c" stroke-width="2" points="157.09,-51.53 157.09,-293.53 557.09,-293.53 557.09,-51.53 157.09,-51.53"/>
</g>
<!-- TravelCompanion&#45;&gt;Holiday -->
<!-- TravelCompanion&#45;&gt;Holiday -->
<g id="edge18" class="edge">
<title>TravelCompanion:e&#45;&gt;Holiday:w</title>
<path fill="none" stroke="#29235c" stroke-width="3" d="M557.09,-142.53C674,-142.53 672.99,-244.11 714.18,-353.53 818.89,-631.72 628.33,-1665.9 914.16,-1690.1"/>
<polygon fill="#29235c" stroke="#29235c" stroke-width="3" points="914.39,-1693.61 924.53,-1690.53 914.68,-1686.62 914.39,-1693.61"/>
<text text-anchor="middle" x="918.31" y="-1700.13" font-family="Helvetica,sans-Serif" font-size="32.00" fill="#29235c">*</text>
<text text-anchor="middle" x="548.19" y="-113.73" font-family="Helvetica,sans-Serif" font-size="32.00" fill="#29235c">1</text>
</g>
<!-- TravelCompanion&#45;&gt;User -->
<!-- TravelCompanion&#45;&gt;User -->
<g id="edge20" class="edge">
<title>TravelCompanion:e&#45;&gt;User:w</title>
<path fill="none" stroke="#29235c" stroke-width="3" d="M557.09,-82.53C1002.49,-82.53 1224.93,-77.8 1496.88,-430.53 1666.56,-650.62 1346.69,-1665.33 1610.01,-1690.07"/>
<polygon fill="#29235c" stroke="#29235c" stroke-width="3" points="1609.89,-1693.57 1620.04,-1690.53 1610.21,-1686.58 1609.89,-1693.57"/>
<text text-anchor="middle" x="1613.82" y="-1661.73" font-family="Helvetica,sans-Serif" font-size="32.00" fill="#29235c">*</text>
<text text-anchor="middle" x="548.19" y="-53.73" font-family="Helvetica,sans-Serif" font-size="32.00" fill="#29235c">1</text>
</g>
<!-- TravelInsurance -->
<g id="TravelInsurance" class="node">
<title>TravelInsurance</title>
<ellipse fill="none" stroke="black" stroke-width="0" cx="357.09" cy="-1600.53" rx="357.18" ry="257.27"/>
<polygon fill="#1d71b8" stroke="transparent" points="107.09,-1720.53 107.09,-1780.53 608.09,-1780.53 608.09,-1720.53 107.09,-1720.53"/>
<polygon fill="none" stroke="#29235c" points="107.09,-1720.53 107.09,-1780.53 608.09,-1780.53 608.09,-1720.53 107.09,-1720.53"/>
<text text-anchor="start" x="180.65" y="-1741.73" font-family="Helvetica,sans-Serif" font-weight="bold" font-size="32.00" fill="#ffffff"> &#160;&#160;&#160;&#160;&#160;&#160;TravelInsurance &#160;&#160;&#160;&#160;&#160;&#160;</text>
<polygon fill="#e7e2dd" stroke="transparent" points="107.09,-1660.53 107.09,-1720.53 608.09,-1720.53 608.09,-1660.53 107.09,-1660.53"/>
<polygon fill="none" stroke="#29235c" points="107.09,-1660.53 107.09,-1720.53 608.09,-1720.53 608.09,-1660.53 107.09,-1660.53"/>
<text text-anchor="start" x="118.09" y="-1681.73" font-family="Helvetica,sans-Serif" font-weight="bold" font-size="32.00" fill="#29235c">id</text>
<text text-anchor="start" x="142.98" y="-1681.73" font-family="Helvetica,sans-Serif" font-size="32.00" fill="#29235c"> &#160;&#160;&#160;</text>
<text text-anchor="start" x="454.87" y="-1681.73" font-family="Helvetica,sans-Serif" font-style="italic" font-size="32.00" fill="#29235c">INTEGER</text>
<polygon fill="#e7e2dd" stroke="transparent" points="107.09,-1600.53 107.09,-1660.53 608.09,-1660.53 608.09,-1600.53 107.09,-1600.53"/>
<polygon fill="none" stroke="#29235c" points="107.09,-1600.53 107.09,-1660.53 608.09,-1660.53 608.09,-1600.53 107.09,-1600.53"/>
<text text-anchor="start" x="118.09" y="-1620.73" font-family="Helvetica,sans-Serif" font-size="32.00" fill="#29235c">holiday_id &#160;&#160;&#160;</text>
<text text-anchor="start" x="454.87" y="-1621.73" font-family="Helvetica,sans-Serif" font-style="italic" font-size="32.00" fill="#29235c">INTEGER</text>
<polygon fill="#e7e2dd" stroke="transparent" points="107.09,-1540.53 107.09,-1600.53 608.09,-1600.53 608.09,-1540.53 107.09,-1540.53"/>
<polygon fill="none" stroke="#29235c" points="107.09,-1540.53 107.09,-1600.53 608.09,-1600.53 608.09,-1540.53 107.09,-1540.53"/>
<text text-anchor="start" x="117.62" y="-1560.73" font-family="Helvetica,sans-Serif" font-size="32.00" fill="#29235c">provider_name &#160;&#160;&#160;</text>
<text text-anchor="start" x="366.04" y="-1561.73" font-family="Helvetica,sans-Serif" font-style="italic" font-size="32.00" fill="#29235c">VARCHAR(100)</text>
<polygon fill="#e7e2dd" stroke="transparent" points="107.09,-1480.53 107.09,-1540.53 608.09,-1540.53 608.09,-1480.53 107.09,-1480.53"/>
<polygon fill="none" stroke="#29235c" points="107.09,-1480.53 107.09,-1540.53 608.09,-1540.53 608.09,-1480.53 107.09,-1480.53"/>
<text text-anchor="start" x="118.09" y="-1500.73" font-family="Helvetica,sans-Serif" font-size="32.00" fill="#29235c">policy_number &#160;&#160;&#160;</text>
<text text-anchor="start" x="383.78" y="-1501.73" font-family="Helvetica,sans-Serif" font-style="italic" font-size="32.00" fill="#29235c">VARCHAR(50)</text>
<polygon fill="#e7e2dd" stroke="transparent" points="107.09,-1420.53 107.09,-1480.53 608.09,-1480.53 608.09,-1420.53 107.09,-1420.53"/>
<polygon fill="none" stroke="#29235c" points="107.09,-1420.53 107.09,-1480.53 608.09,-1480.53 608.09,-1420.53 107.09,-1420.53"/>
<text text-anchor="start" x="118.09" y="-1440.73" font-family="Helvetica,sans-Serif" font-size="32.00" fill="#29235c">cost &#160;&#160;&#160;</text>
<text text-anchor="start" x="454.87" y="-1441.73" font-family="Helvetica,sans-Serif" font-style="italic" font-size="32.00" fill="#29235c">INTEGER</text>
<polygon fill="none" stroke="#29235c" stroke-width="2" points="105.59,-1419.53 105.59,-1781.53 608.59,-1781.53 608.59,-1419.53 105.59,-1419.53"/>
</g>
<!-- TravelInsurance&#45;&gt;Holiday -->
<!-- TravelInsurance&#45;&gt;Holiday -->
<g id="edge22" class="edge">
<title>TravelInsurance:e&#45;&gt;Holiday:w</title>
<path fill="none" stroke="#29235c" stroke-width="3" d="M609.09,-1630.53C748.31,-1630.53 780.29,-1687.64 914.28,-1690.43"/>
<polygon fill="#29235c" stroke="#29235c" stroke-width="3" points="914.49,-1693.93 924.53,-1690.53 914.57,-1686.93 914.49,-1693.93"/>
<text text-anchor="middle" x="918.31" y="-1661.73" font-family="Helvetica,sans-Serif" font-size="32.00" fill="#29235c">*</text>
<text text-anchor="middle" x="600.19" y="-1640.13" font-family="Helvetica,sans-Serif" font-size="32.00" fill="#29235c">1</text>
</g>
<!-- Wishlist -->
<g id="Wishlist" class="node">
<title>Wishlist</title>
<ellipse fill="none" stroke="black" stroke-width="0" cx="1123.53" cy="-2090.53" rx="373.2" ry="214.92"/>
<polygon fill="#1d71b8" stroke="transparent" points="861.53,-2180.53 861.53,-2240.53 1385.53,-2240.53 1385.53,-2180.53 861.53,-2180.53"/>
<polygon fill="none" stroke="#29235c" points="861.53,-2180.53 861.53,-2240.53 1385.53,-2240.53 1385.53,-2180.53 861.53,-2180.53"/>
<text text-anchor="start" x="1006.19" y="-2201.73" font-family="Helvetica,sans-Serif" font-weight="bold" font-size="32.00" fill="#ffffff"> &#160;&#160;&#160;&#160;&#160;&#160;Wishlist &#160;&#160;&#160;&#160;&#160;&#160;</text>
<polygon fill="#e7e2dd" stroke="transparent" points="861.53,-2120.53 861.53,-2180.53 1385.53,-2180.53 1385.53,-2120.53 861.53,-2120.53"/>
<polygon fill="none" stroke="#29235c" points="861.53,-2120.53 861.53,-2180.53 1385.53,-2180.53 1385.53,-2120.53 861.53,-2120.53"/>
<text text-anchor="start" x="872.53" y="-2141.73" font-family="Helvetica,sans-Serif" font-weight="bold" font-size="32.00" fill="#29235c">id</text>
<text text-anchor="start" x="897.42" y="-2141.73" font-family="Helvetica,sans-Serif" font-size="32.00" fill="#29235c"> &#160;&#160;&#160;</text>
<text text-anchor="start" x="1232.31" y="-2141.73" font-family="Helvetica,sans-Serif" font-style="italic" font-size="32.00" fill="#29235c">INTEGER</text>
<polygon fill="#e7e2dd" stroke="transparent" points="861.53,-2060.53 861.53,-2120.53 1385.53,-2120.53 1385.53,-2060.53 861.53,-2060.53"/>
<polygon fill="none" stroke="#29235c" points="861.53,-2060.53 861.53,-2120.53 1385.53,-2120.53 1385.53,-2060.53 861.53,-2060.53"/>
<text text-anchor="start" x="872.53" y="-2080.73" font-family="Helvetica,sans-Serif" font-size="32.00" fill="#29235c">user_id &#160;&#160;&#160;</text>
<text text-anchor="start" x="1232.31" y="-2081.73" font-family="Helvetica,sans-Serif" font-style="italic" font-size="32.00" fill="#29235c">INTEGER</text>
<polygon fill="#e7e2dd" stroke="transparent" points="861.53,-2000.53 861.53,-2060.53 1385.53,-2060.53 1385.53,-2000.53 861.53,-2000.53"/>
<polygon fill="none" stroke="#29235c" points="861.53,-2000.53 861.53,-2060.53 1385.53,-2060.53 1385.53,-2000.53 861.53,-2000.53"/>
<text text-anchor="start" x="872.53" y="-2020.73" font-family="Helvetica,sans-Serif" font-size="32.00" fill="#29235c">destination_id &#160;&#160;&#160;</text>
<text text-anchor="start" x="1232.31" y="-2021.73" font-family="Helvetica,sans-Serif" font-style="italic" font-size="32.00" fill="#29235c">INTEGER</text>
<polygon fill="#e7e2dd" stroke="transparent" points="861.53,-1940.53 861.53,-2000.53 1385.53,-2000.53 1385.53,-1940.53 861.53,-1940.53"/>
<polygon fill="none" stroke="#29235c" points="861.53,-1940.53 861.53,-2000.53 1385.53,-2000.53 1385.53,-1940.53 861.53,-1940.53"/>
<text text-anchor="start" x="872.32" y="-1960.73" font-family="Helvetica,sans-Serif" font-size="32.00" fill="#29235c">preferred_travel_date &#160;&#160;&#160;</text>
<text text-anchor="start" x="1213.15" y="-1961.73" font-family="Helvetica,sans-Serif" font-style="italic" font-size="32.00" fill="#29235c">DATETIME</text>
<polygon fill="none" stroke="#29235c" stroke-width="2" points="860.53,-1939.53 860.53,-2241.53 1386.53,-2241.53 1386.53,-1939.53 860.53,-1939.53"/>
</g>
<!-- Wishlist&#45;&gt;Destination -->
<!-- Wishlist&#45;&gt;Destination -->
<g id="edge24" class="edge">
<title>Wishlist:e&#45;&gt;Destination:w</title>
<path fill="none" stroke="#29235c" stroke-width="3" d="M1386.53,-2030.53C1496.4,-2030.53 1524.09,-2063.45 1628.98,-2065.44"/>
<polygon fill="#29235c" stroke="#29235c" stroke-width="3" points="1629.01,-2068.94 1639.04,-2065.53 1629.07,-2061.94 1629.01,-2068.94"/>
<text text-anchor="middle" x="1632.82" y="-2036.73" font-family="Helvetica,sans-Serif" font-size="32.00" fill="#29235c">*</text>
<text text-anchor="middle" x="1377.64" y="-2040.13" font-family="Helvetica,sans-Serif" font-size="32.00" fill="#29235c">1</text>
</g>
<!-- Wishlist&#45;&gt;User -->
<!-- Wishlist&#45;&gt;User -->
<g id="edge26" class="edge">
<title>Wishlist:e&#45;&gt;User:w</title>
<path fill="none" stroke="#29235c" stroke-width="3" d="M1386.53,-2090.53C1588.87,-2090.53 1420.16,-1704.09 1609.82,-1690.88"/>
<polygon fill="#29235c" stroke="#29235c" stroke-width="3" points="1610.16,-1694.37 1620.04,-1690.53 1609.93,-1687.37 1610.16,-1694.37"/>
<text text-anchor="middle" x="1626.26" y="-1700.13" font-family="Helvetica,sans-Serif" font-size="32.00" fill="#29235c">*</text>
<text text-anchor="middle" x="1377.64" y="-2100.13" font-family="Helvetica,sans-Serif" font-size="32.00" fill="#29235c">1</text>
</g>
</g>
</svg>
